# AST/ASF file generated using VICON BodyLanguage
# -----------------------------------------------
:version 1.10
:name VICON
:units
  mass 1.0
  length 0.45
  angle deg
:documentation
   .ast/.asf automatically generated from VICON data using
   VICON BodyBuilder and BodyLanguage model FoxedUp or BRILLIANT.MOD
:root
   order TX TY TZ RX RY RZ
   axis XYZ
   position 0 0 0  
   orientation 0 0 0 
:bonedata
  begin
     id 1 
     name lhipjoint
     direction 0.645893 -0.654526 0.392961 
     length 2.38111 
     axis 0 0 0  XYZ
  end
  begin
     id 2 
     name lfemur
     direction 0.34202 -0.939693 0  
     length 6.6822  
     axis 0 0 20  XYZ
    dof rx ry rz
    limits (-160.0 20.0)
           (-70.0 70.0)
           (-60.0 70.0)
  end
  begin
     id 3 
     name ltibia
     direction 0.34202 -0.939693 0   
     length 6.93904   
     axis 0 0 20   XYZ
    dof rx
    limits (-10.0 170.0)
  end
  begin
     id 4 
     name lfoot
     direction 0.0694967 -0.190941 0.979138   
     length 2.13616   
     axis -90 7.62852e-016 20   XYZ
    dof rx rz
    limits (-45.0 90.0)
           (-70.0 20.0)
  end
  begin
     id 5 
     name ltoes
     direction 1.535e-011 -4.2202e-011 1   
     length 1.07536   
     axis -90 7.62852e-016 20   XYZ
    dof rx
    limits (-90.0 20.0)
  end
  begin
     id 6 
     name rhipjoint
     direction -0.700219 -0.612087 0.367481   
     length 2.54621  
     axis 0 0 0  XYZ 
  end
  begin
     id 7 
     name rfemur
     direction -0.34202 -0.939693 0   
     length 6.55353   
     axis 0 0 -20   XYZ
    dof rx ry rz
    limits (-160.0 20.0)
           (-70.0 70.0)
           (-70.0 60.0)
  end
  begin
     id 8 
     name rtibia
     direction -0.34202 -0.939693 0   
     length 6.8736   
     axis 0 0 -20   XYZ
    dof rx
    limits (-10.0 170.0)
 end
 begin
     id 9 
     name rfoot
     direction -0.0679995 -0.186827 0.980037   
     length 2.1218  
     axis -90 -7.62852e-016 -20   XYZ
    dof rx rz
    limits (-45.0 90.0)
           (-20.0 70.0)
  end
  begin
     id 10 
     name rtoes
     direction -1.53589e-011 -4.21772e-011 1   
     length 1.06864   
     axis -90 -7.62852e-016 -20   XYZ
    dof rx
    limits (-90.0 20.0)
  end
  begin
     id 11 
     name lowerback
     direction -0.0416607 0.996347 -0.0745409   
     length 2.12205   
     axis 0 0 0   XYZ
    dof rx ry rz
    limits (-20.0 45.0)
           (-30.0 30.0)
           (-30.0 30.0)
  end
  begin
     id 12 
     name upperback
     direction -0.000153993 0.999276 -0.0380568   
     length 2.12759   
     axis 0 0 0   XYZ
    dof rx ry rz
    limits (-20.0 45.0)
           (-30.0 30.0)
           (-30.0 30.0)
  end
  begin
     id 13 
     name thorax
     direction 0.0187671 0.999821 -0.00241421   
     length 2.13704   
     axis 0 0 0   XYZ
    dof rx ry rz
    limits (-20.0 45.0)
           (-30.0 30.0)
           (-30.0 30.0)
  end
  begin
     id 14 
     name lowerneck
     direction 0.0268157 0.964865 0.261374   
     length 1.65253   
     axis 0 0 0   XYZ
    dof rx ry rz
    limits (-20.0 45.0)
           (-30.0 30.0)
           (-30.0 30.0)
  end
  begin
     id 15 
     name upperneck
     direction 0.00263774 0.939908 -0.341418   
     length 1.72375   
     axis 0 0 0   XYZ
    dof rx ry rz
    limits (-20.0 45.0)
           (-30.0 30.0)
           (-30.0 30.0)
  end
  begin
     id 16
     name head
     direction -0.00526001 0.989001 -0.147818  
     length 1.74878  
     axis 0 0 0   XYZ
    dof rx ry rz
    limits (-20.0 45.0)
           (-30.0 30.0)
           (-30.0 30.0)
  end
  begin
     id 17 
     name lclavicle
     direction 0.881214 0.461162 -0.103884  
     length 3.25108  
     axis 0 0 0   XYZ
    dof ry rz
    limits (-20.0 10.0)
           (0.0 20.0)
  end
  begin
     id 18 
     name lhumerus
     direction 1 -4.4899e-011 3.38092e-027   
     length 4.87408   
     axis 180 -30 -90   XYZ
    dof rx ry rz
    limits (-60.0 90.0)
           (-90.0 90.0)
           (-90.0 90.0)
  end
  begin
     id 19
     name lradius
     direction 1 -4.48931e-011 9.96288e-027   
     length 2.76729   
     axis 180 -30 -90   XYZ
    dof rx
    limits (-10.0 170.0)
  end
  begin
     id 20
     name lwrist
     direction 1 -4.4896e-011 1.50617e-026   
     length 1.38364   
     axis -9.31234e-015 90 90   XYZ
    dof ry
    limits (-180.0 0.0)
 end
  begin
     id 21 
     name lhand
     direction 1 -4.49038e-011 3.01286e-026   
     length 0.98922   
     axis -1.92217e-014 90 90   XYZ
    dof rx rz
    limits (-90.0 90.0)
           (-45.0 45.0)
  end
  begin
     id 22 
     name lfingers
     direction 1 -4.49051e-011 6.02588e-026   
     length 0.797535   
     axis -3.84436e-014 90 90   XYZ
    dof rx
    limits (0.0 90.0)
  end
  begin
     id 23
     name lthumb
     direction 0.707107 -6.34901e-011 0.707107   
     length 1.14511   
     axis -90 45 2.19363e-014   XYZ
    dof rx rz
    limits (-45.0 45.0)
           (-45.0 45.0)
  end
  begin
     id 24 
     name rclavicle
     direction -0.893894 0.441652 -0.0767889   
     length 3.29361  
     axis 0 0 0   XYZ 
    dof ry rz
    limits (-10.0 20.0)
           (-20.0 0.0)
  end
  begin
     id 25 
     name rhumerus
     direction -1 -4.48945e-011 8.0491e-028  
     length 4.71404   
     axis 180 30 90   XYZ
    dof rx ry rz
    limits (-90.0 60.0)
           (-90.0 90.0)
           (-90.0 90.0)
  end
  begin
     id 26 
     name rradius
     direction -1 -4.48986e-011 9.27795e-027   
     length 2.83468   
     axis 180 30 90   XYZ
    dof rx
    limits (-10.0 170.0)
  end
  begin
     id 27 
     name rwrist
     direction -1 -4.49029e-011 1.5064e-026   
     length 1.41734   
     axis -9.31234e-015 -90 -90   XYZ
    dof ry
    limits (-180.0 0.0)
  end
  begin
     id 28
     name rhand
     direction -1 -4.48857e-011 3.01165e-026   
     length 0.868195   
     axis -1.92217e-014 -90 -90   XYZ
    dof rx rz
    limits (-90.0 90.0)
           (-45.0 45.0)
  end
  begin
     id 29
     name rfingers
     direction -1 -4.49048e-011 6.02585e-026   
     length 0.699961   
     axis -3.84436e-014 -90 -90   XYZ
    dof rx
    limits (0.0 90.0)
  end
  begin
     id 30
     name rthumb
     direction -0.707107 -6.34854e-011 0.707107   
     length 1.00501   
     axis -90 -45 -2.19363e-014   XYZ
    dof rx rz
    limits (-45.0 45.0)
           (-45.0 45.0)
  end
:hierarchy
  begin
    root lhipjoint rhipjoint lowerback
    lhipjoint lfemur
    lfemur ltibia
    ltibia lfoot
    lfoot ltoes
    rhipjoint rfemur
    rfemur rtibia
    rtibia rfoot
    rfoot rtoes
    lowerback upperback
    upperback thorax
    thorax lowerneck lclavicle rclavicle
    lowerneck upperneck
    upperneck head
    lclavicle lhumerus
    lhumerus lradius
    lradius lwrist
    lwrist lhand lthumb
    lhand lfingers
    rclavicle rhumerus
    rhumerus rradius
    rradius rwrist
    rwrist rhand rthumb
    rhand rfingers
  end

#!OML:ASF H:\ManfredObstacles\Project 1\Capture day 2\Session 1\male.ASF
:FULLY-SPECIFIED
:DEGREES
165
root 1.90071 13.8489 -11.7747 -173.782 -13.6673 177.066
lowerback 9.29799 -0.339706 -4.55577
upperback 3.55082 -1.25088 -2.29672
thorax -1.48835 -0.785722 0.317596
lowerneck -36.4556 -3.18398 -3.62435
upperneck 39.5853 -8.09048 5.7375
head 24.5046 -3.17854 1.14548
rclavicle -8.15017e-015 8.74653e-015
rhumerus -35.5764 10.3117 -80.744
rradius 71.036
rwrist 13.1251
rhand -9.69929 -6.06002
rfingers 7.12502
rthumb 16.2732 -35.3971
lclavicle -8.15017e-015 8.74653e-015
lhumerus -25.8695 -38.067 97.4402
lradius 81.6415
lwrist -22.9339
lhand -18.7983 7.03335
lfingers 7.12502
lthumb 7.4998 36.8804
rfemur -49.3442 -1.56214 15.8505
rtibia 102.23
rfoot 9.82971 5.8054
rtoes -9.25421
lfemur -33.008 -6.27126 -22.2016
ltibia 76.8602
lfoot -4.55751 26.4377
ltoes -22.1609
166
root 1.89159 13.9555 -11.9995 -173.824 -13.4721 177.117
lowerback 9.09503 -0.393706 -4.67326
upperback 3.4841 -1.31105 -2.25218
thorax -1.43939 -0.81237 0.432579
lowerneck -36.4311 -3.08098 -3.53739
upperneck 39.6639 -8.02046 5.72321
head 24.5537 -3.15206 1.14155
rclavicle -2.98177e-015 1.66979e-014
rhumerus -37.5251 9.81988 -80.9781
rradius 70.704
rwrist 12.577
rhand -9.56676 -6.13553
rfingers 7.12502
rthumb 16.4008 -35.4622
lclavicle -2.98177e-015 1.66979e-014
lhumerus -25.685 -38.4552 97.5523
lradius 81.751
lwrist -22.8
lhand -18.717 7.04113
lfingers 7.12502
lthumb 7.57831 36.8854
rfemur -49.6198 -2.14049 15.9295
rtibia 102.01
rfoot 9.4443 4.74708
rtoes -9.31007
lfemur -31.1642 -5.81602 -21.9485
ltibia 75.2167
lfoot -4.31051 25.6695
ltoes -22.3049
167
root 1.88511 14.0671 -12.2281 -173.781 -13.2881 177.114
lowerback 8.81421 -0.476711 -4.84088
upperback 3.39415 -1.40773 -2.22451
thorax -1.36861 -0.856719 0.560052
lowerneck -36.4056 -2.94831 -3.43503
upperneck 39.7719 -7.9275 5.70967
head 24.6275 -3.11776 1.14215
rclavicle 8.34896e-015 -7.95139e-014
rhumerus -39.4688 9.37111 -81.2316
rradius 70.442
rwrist 12.1575
rhand -9.34683 -6.12741
rfingers 7.12502
rthumb 16.6126 -35.4364
lclavicle 8.34896e-015 -7.95139e-014
lhumerus -25.5357 -38.8415 97.61
lradius 81.8487
lwrist -22.7063
lhand -18.6253 7.04058
lfingers 7.12502
lthumb 7.66687 36.8816
rfemur -50.0013 -2.80097 15.9844
rtibia 101.662
rfoot 8.72757 3.84626
rtoes -9.8748
lfemur -29.3535 -5.34891 -21.7377
ltibia 73.4277
lfoot -4.02285 24.8099
ltoes -22.3368
168
root 1.8814 14.1838 -12.4598 -173.642 -13.1227 177.048
lowerback 8.48054 -0.59038 -5.06264
upperback 3.26133 -1.54451 -2.21369
thorax -1.30916 -0.919262 0.702685
lowerneck -36.3655 -2.78508 -3.32202
upperneck 39.9117 -7.81449 5.70442
head 24.726 -3.07759 1.15151
rclavicle -2.08724e-014 -7.07673e-014
rhumerus -41.4497 9.00619 -81.5348
rradius 70.2975
rwrist 11.6816
rhand -9.20215 -6.08425
rfingers 7.12502
rthumb 16.7518 -35.3815
lclavicle -2.08724e-014 -7.07673e-014
lhumerus -25.4712 -39.2114 97.6452
lradius 81.957
lwrist -22.6751
lhand -18.5154 7.03035
lfingers 7.12502
lthumb 7.77286 36.8675
rfemur -50.4947 -3.53233 16.0086
rtibia 101.173
rfoot 7.8983 3.22097
rtoes -10.5715
lfemur -27.6112 -4.88368 -21.578
ltibia 71.5157
lfoot -3.71289 23.8235
ltoes -22.28
169
root 1.87922 14.3073 -12.6947 -173.422 -13.0035 176.921
lowerback 8.09222 -0.742239 -5.31848
upperback 3.11044 -1.7296 -2.21386
thorax -1.23348 -1.00566 0.854856
lowerneck -36.3417 -2.60314 -3.20233
upperneck 40.0582 -7.67249 5.69234
head 24.8338 -3.02746 1.16491
rclavicle 0 7.95139e-015
rhumerus -43.4241 8.72078 -81.8676
rradius 70.2649
rwrist 11.163
rhand -9.12888 -6.00074
rfingers 7.12502
rthumb 16.8224 -35.292
lclavicle 0 7.95139e-015
lhumerus -25.4624 -39.5612 97.6553
lradius 82.0836
lwrist -22.6711
lhand -18.4088 7.00052
lfingers 7.12502
lthumb 7.87576 36.8338
rfemur -51.0453 -4.33835 15.9979
rtibia 100.514
rfoot 7.02833 2.84915
rtoes -11.5991
lfemur -25.9239 -4.45385 -21.481
ltibia 69.4907
lfoot -3.35789 22.7023
ltoes -22.1663
170
root 1.87859 14.4374 -12.9324 -173.144 -12.934 176.762
lowerback 7.67667 -0.93213 -5.5799
upperback 2.94664 -1.96179 -2.21231
thorax -1.15105 -1.11517 1.01319
lowerneck -36.3487 -2.39891 -3.07089
upperneck 40.1999 -7.48997 5.67145
head 24.9438 -2.96119 1.18424
rclavicle 1.03368e-014 -1.11319e-014
rhumerus -45.381 8.51964 -82.2248
rradius 70.3386
rwrist 10.5878
rhand -9.13141 -5.92301
rfingers 7.12502
rthumb 16.8199 -35.2145
lclavicle 1.03368e-014 -1.11319e-014
lhumerus -25.5135 -39.8863 97.6524
lradius 82.225
lwrist -22.7044
lhand -18.3078 6.95609
lfingers 7.12502
lthumb 7.97328 36.7857
rfemur -51.617 -5.1922 15.9946
rtibia 99.6672
rfoot 6.19896 2.64302
rtoes -12.9365
lfemur -24.2875 -4.0649 -21.4162
ltibia 67.3674
lfoot -2.90332 21.4275
ltoes -21.9948
171
root 1.87964 14.5749 -13.1729 -172.83 -12.9234 176.607
lowerback 7.24072 -1.15968 -5.81761
upperback 2.77468 -2.23792 -2.19445
thorax -1.06069 -1.24605 1.17527
lowerneck -36.3613 -2.17149 -2.91751
upperneck 40.3243 -7.25731 5.62352
head 25.0294 -2.87604 1.20008
rclavicle 9.34288e-015 -1.19271e-014
rhumerus -47.31 8.38583 -82.5914
rradius 70.479
rwrist 9.94977
rhand -9.22166 -5.83795
rfingers 7.12502
rthumb 16.7331 -35.1368
lclavicle 9.34288e-015 -1.19271e-014
lhumerus -25.6441 -40.1717 97.652
lradius 82.3959
lwrist -22.7542
lhand -18.2224 6.87931
lfingers 7.12502
lthumb 8.05565 36.7058
rfemur -52.1748 -6.07447 16.0436
rtibia 98.6217
rfoot 5.52274 2.41586
rtoes -14.2766
lfemur -22.7005 -3.7242 -21.3405
ltibia 65.1521
lfoot -2.36138 19.98
ltoes -21.7895
172
root 1.88184 14.721 -13.4169 -172.495 -12.9639 176.469
lowerback 6.78551 -1.41987 -6.01574
upperback 2.60281 -2.55049 -2.15652
thorax -0.955046 -1.39501 1.33447
lowerneck -36.3804 -1.91743 -2.72738
upperneck 40.4262 -6.9638 5.52915
head 25.0811 -2.76736 1.20175
rclavicle -3.97569e-016 -2.38542e-015
rhumerus -49.2013 8.30614 -82.9464
rradius 70.6719
rwrist 9.31721
rhand -9.33429 -5.76063
rfingers 7.12502
rthumb 16.6246 -35.0686
lclavicle -3.97569e-016 -2.38542e-015
lhumerus -25.8443 -40.4253 97.6592
lradius 82.5805
lwrist -22.8036
lhand -18.1212 6.78398
lfingers 7.12502
lthumb 8.15332 36.6067
rfemur -52.6704 -6.94137 16.1539
rtibia 97.3606
rfoot 5.01725 2.05989
rtoes -15.5067
lfemur -21.138 -3.43977 -21.2437
ltibia 62.8424
lfoot -1.68951 18.3635
ltoes -21.5765
173
root 1.88536 14.8749 -13.6649 -172.159 -13.033 176.379
lowerback 6.32168 -1.70046 -6.14932
upperback 2.42876 -2.88276 -2.09465
thorax -0.844478 -1.55319 1.47944
lowerneck -36.3832 -1.64954 -2.52264
upperneck 40.5119 -6.63307 5.40733
head 25.1036 -2.64629 1.19642
rclavicle -5.76476e-015 -6.36111e-015
rhumerus -51.0438 8.23981 -83.2678
rradius 70.8878
rwrist 8.78618
rhand -9.36922 -5.70099
rfingers 7.12502
rthumb 16.591 -35.0118
lclavicle -5.76476e-015 -6.36111e-015
lhumerus -26.1425 -40.6472 97.692
lradius 82.771
lwrist -22.8401
lhand -18.0086 6.66007
lfingers 7.12502
lthumb 8.26202 36.4785
rfemur -53.0752 -7.75383 16.3593
rtibia 95.8763
rfoot 4.68182 1.494
rtoes -16.6471
lfemur -19.5859 -3.19235 -21.09
ltibia 60.437
lfoot -0.851063 16.5816
ltoes -21.3388
174
root 1.88965 15.0362 -13.9172 -171.835 -13.1111 176.327
lowerback 5.85528 -1.99213 -6.22071
upperback 2.25203 -3.22487 -2.01963
thorax -0.73462 -1.71588 1.59973
lowerneck -36.3562 -1.3727 -2.30357
upperneck 40.5776 -6.27063 5.25418
head 25.0889 -2.51546 1.17984
rclavicle -1.19271e-014 -3.57812e-014
rhumerus -52.845 8.17286 -83.56
rradius 71.117
rwrist 8.32073
rhand -9.35242 -5.65681
rfingers 7.12502
rthumb 16.6072 -34.9663
lclavicle -1.19271e-014 -3.57812e-014
lhumerus -26.5682 -40.8228 97.7659
lradius 82.9694
lwrist -22.8787
lhand -17.8888 6.52319
lfingers 7.12502
lthumb 8.37766 36.337
rfemur -53.3604 -8.4883 16.6329
rtibia 94.1692
rfoot 4.5308 0.673432
rtoes -17.6445
lfemur -18.023 -2.98081 -20.8957
ltibia 57.932
lfoot 0.187408 14.6499
ltoes -21.0727
175
root 1.89465 15.204 -14.1749 -171.526 -13.1641 176.307
lowerback 5.36765 -2.28386 -6.25048
upperback 2.0861 -3.56262 -1.92894
thorax -0.601579 -1.87734 1.70704
lowerneck -36.334 -1.08848 -2.07629
upperneck 40.6412 -5.87506 5.06187
head 25.069 -2.37617 1.14924
rclavicle 2.20651e-014 3.4191e-014
rhumerus -54.5574 8.09276 -83.7904
rradius 71.3396
rwrist 7.99763
rhand -9.22248 -5.60961
rfingers 7.12502
rthumb 16.7323 -34.9085
lclavicle 2.20651e-014 3.4191e-014
lhumerus -27.0926 -40.9374 97.869
lradius 83.1651
lwrist -22.9103
lhand -17.7764 6.36983
lfingers 7.12502
lthumb 8.48612 36.1793
rfemur -53.515 -9.11088 16.9579
rtibia 92.2451
rfoot 4.58513 -0.414844
rtoes -18.4479
lfemur -16.4346 -2.78184 -20.6706
ltibia 55.3269
lfoot 1.45799 12.6026
ltoes -20.7845
176
root 1.90026 15.3746 -14.437 -171.225 -13.1686 176.296
lowerback 4.87871 -2.56931 -6.25942
upperback 1.89995 -3.89241 -1.83908
thorax -0.489075 -2.03396 1.7978
lowerneck -36.2507 -0.780648 -1.81166
upperneck 40.7146 -5.4499 4.82288
head 25.0297 -2.22998 1.0924
rclavicle -3.77691e-015 -2.3059e-014
rhumerus -56.2461 8.01084 -84.0064
rradius 71.5701
rwrist 7.63495
rhand -9.11799 -5.54654
rfingers 7.12502
rthumb 16.8329 -34.8369
lclavicle -3.77691e-015 -2.3059e-014
lhumerus -27.797 -40.9756 98.0413
lradius 83.3632
lwrist -22.9303
lhand -17.6728 6.20255
lfingers 7.12502
lthumb 8.58608 36.008
rfemur -53.5608 -9.62083 17.2926
rtibia 90.1385
rfoot 4.80796 -1.72685
rtoes -19.049
lfemur -14.8246 -2.58905 -20.4455
ltibia 52.6356
lfoot 2.9927 10.4799
ltoes -20.5154
177
root 1.90651 15.5463 -14.7027 -170.925 -13.1124 176.269
lowerback 4.38294 -2.84529 -6.27812
upperback 1.70086 -4.21141 -1.74735
thorax -0.384744 -2.18523 1.89125
lowerneck -36.1282 -0.458744 -1.53366
upperneck 40.7998 -4.99506 4.54213
head 24.9852 -2.0796 1.01686
rclavicle 3.91606e-014 -7.95139e-015
rhumerus -57.8853 7.94524 -84.1894
rradius 71.8131
rwrist 7.20485
rhand -9.05891 -5.46663
rfingers 7.12502
rthumb 16.8897 -34.7522
lclavicle 3.91606e-014 -7.95139e-015
lhumerus -28.6437 -40.9233 98.2665
lradius 83.5638
lwrist -22.943
lhand -17.566 6.0231
lfingers 7.12502
lthumb 8.68919 35.8243
rfemur -53.5144 -10.0173 17.6018
rtibia 87.8757
rfoot 5.16084 -3.18646
rtoes -19.3537
lfemur -13.2021 -2.39499 -20.2464
ltibia 49.8787
lfoot 4.80595 8.31326
ltoes -20.2668
